<svg width="24" height="24" viewBox="0 0 24 24" fill="none" xmlns="http://www.w3.org/2000/svg">
<path opacity="0.4" d="M16.3402 2H7.67024C4.28024 2 2.00024 4.38 2.00024 7.92V16.09C2.00024 19.62 4.28024 22 7.67024 22H16.3402C19.7302 22 22.0002 19.62 22.0002 16.09V7.92C22.0002 4.38 19.7302 2 16.3402 2" fill="#212121"/>
<path d="M10.8133 15.2485C10.5893 15.2485 10.3653 15.1635 10.1943 14.9925L7.82132 12.6195C7.47932 12.2775 7.47932 11.7235 7.82132 11.3825C8.16332 11.0405 8.71632 11.0395 9.05832 11.3815L10.8133 13.1365L14.9413 9.00845C15.2833 8.66645 15.8363 8.66645 16.1783 9.00845C16.5203 9.35045 16.5203 9.90445 16.1783 10.2465L11.4323 14.9925C11.2613 15.1635 11.0373 15.2485 10.8133 15.2485" fill="#FFE24B"/>
</svg>
