<svg width="21" height="16" viewBox="0 0 21 16" fill="none" xmlns="http://www.w3.org/2000/svg">
<path fill-rule="evenodd" clip-rule="evenodd" d="M0 2.625C0 1.17512 1.17512 0 2.625 0H18.375C19.8249 0 21 1.17512 21 2.625V13.125C21 14.5749 19.8249 15.75 18.375 15.75H2.625C1.17512 15.75 0 14.5749 0 13.125V2.625ZM2.625 1.75C2.142 1.75 1.75 2.142 1.75 2.625V3.5H19.25V2.625C19.25 2.142 18.858 1.75 18.375 1.75H2.625ZM19.25 5.25H1.75V13.125C1.75 13.608 2.142 14 2.625 14H18.375C18.858 14 19.25 13.608 19.25 13.125V5.25ZM3.5 11.375C3.5 10.892 3.892 10.5 4.375 10.5H9.625C10.108 10.5 10.5 10.892 10.5 11.375C10.5 11.858 10.108 12.25 9.625 12.25H4.375C3.892 12.25 3.5 11.858 3.5 11.375V11.375Z" fill="black"/>
</svg>
