<svg width="23" height="20" viewBox="0 0 23 20" fill="none" xmlns="http://www.w3.org/2000/svg">
<path fill-rule="evenodd" clip-rule="evenodd" d="M11.6262 2.02338C11.3029 1.78786 10.8642 1.78786 10.5401 2.02338L4.61793 6.33105V17.1113C4.61793 17.6211 5.0317 18.0349 5.54153 18.0349H7.38873V12.4933C7.38873 10.9629 8.62912 9.72251 10.1595 9.72251H12.0067C13.5371 9.72251 14.7775 10.9629 14.7775 12.4933V18.0349H16.6247C17.1346 18.0349 17.5483 17.6211 17.5483 17.1113V6.33105L11.6262 2.02338ZM19.3955 7.67397L20.6997 8.6225C21.1116 8.92267 21.6898 8.83124 21.9899 8.41839C22.2901 8.00646 22.1987 7.42829 21.7858 7.12812L12.7133 0.529916C11.7407 -0.176639 10.4255 -0.176639 9.45298 0.529916L0.380449 7.12812C-0.0324008 7.42829 -0.122914 8.00646 0.176333 8.41839C0.476503 8.83124 1.05468 8.92267 1.4666 8.6225L2.77073 7.67397V17.1113C2.77073 18.6417 4.01112 19.8821 5.54153 19.8821H16.6247C18.1551 19.8821 19.3955 18.6417 19.3955 17.1113V7.67397ZM12.9303 18.0349V12.4933C12.9303 11.9835 12.5166 11.5697 12.0067 11.5697H10.1595C9.6497 11.5697 9.23593 11.9835 9.23593 12.4933V18.0349H12.9303V18.0349Z" fill="black"/>
</svg>
