<svg width="21" height="21" viewBox="0 0 21 21" fill="none" xmlns="http://www.w3.org/2000/svg">
<path fill-rule="evenodd" clip-rule="evenodd" d="M10.5 21C16.299 21 21 16.299 21 10.5C21 4.70101 16.299 0 10.5 0C4.70101 0 0 4.70101 0 10.5C0 16.299 4.70101 21 10.5 21ZM3.457 15.9167C2.30216 14.4173 1.61538 12.5389 1.61538 10.5C1.61538 5.59316 5.59316 1.61538 10.5 1.61538C15.4068 1.61538 19.3846 5.59316 19.3846 10.5C19.3846 12.5393 18.6976 14.418 17.5423 15.9175C17.0152 15.4395 16.3416 15.0938 15.4551 14.7747C15.3223 14.7269 15.1862 14.6799 15.0163 14.6228L14.6025 14.4843C13.5963 14.1448 13.2403 13.9291 13.1575 13.6562C13.1547 13.647 13.1502 13.63 13.1439 13.5969C13.1081 13.4079 13.1163 13.2011 13.1898 13.0296C13.2332 12.9284 13.2994 12.8383 13.3986 12.7554C14.5144 11.7481 15.0769 10.6128 15.0769 9.06432C15.0769 6.36646 12.9661 4.30769 10.5 4.30769C8.01698 4.30769 5.92308 6.33138 5.92308 9.06432C5.92308 10.6083 6.47096 11.7104 7.547 12.7237C7.68546 12.8405 7.75498 12.926 7.80226 13.0156C7.89379 13.1891 7.9055 13.3903 7.86541 13.5755C7.86254 13.5888 7.86015 13.5987 7.85865 13.605C7.85685 13.6126 7.85633 13.6147 7.85782 13.6107C7.77811 13.8938 7.44797 14.0972 6.51762 14.415L6.041 14.5759C5.8422 14.6434 5.68417 14.6988 5.52949 14.7558C4.65769 15.0776 3.98404 15.433 3.457 15.9167ZM4.55699 17.1044C6.13121 18.5219 8.21486 19.3846 10.5 19.3846C12.7846 19.3846 14.8678 18.5223 16.4419 17.1054C16.0894 16.793 15.6009 16.544 14.908 16.2946C14.7875 16.2512 14.6613 16.2077 14.5012 16.1539L14.0861 16.0149C12.5834 15.5079 11.9069 15.0981 11.6158 14.1385C11.5974 14.0814 11.5762 14.0001 11.5568 13.8977C11.4663 13.42 11.4867 12.9024 11.7052 12.3929C11.8474 12.0615 12.0658 11.7641 12.3391 11.5364C13.1089 10.8409 13.4615 10.1292 13.4615 9.06432C13.4615 7.26777 12.0828 5.92308 10.5 5.92308C8.89704 5.92308 7.53846 7.23609 7.53846 9.06432C7.53846 10.1281 7.88299 10.8212 8.61591 11.5137C8.87938 11.7319 9.0844 11.9839 9.23106 12.262C9.52441 12.8181 9.55785 13.3924 9.44422 13.9173C9.42097 14.0247 9.39539 14.1102 9.3953 14.1008C9.14096 15.0454 8.48324 15.4506 7.03977 15.9437L6.56004 16.1057C6.3736 16.1689 6.22803 16.2199 6.08884 16.2713C5.40391 16.5241 4.91253 16.7823 4.55699 17.1044Z" fill="black"/>
</svg>
