<svg width="18" height="18" viewBox="0 0 18 18" fill="none" xmlns="http://www.w3.org/2000/svg">
<path fill-rule="evenodd" clip-rule="evenodd" d="M9 18C13.9706 18 18 13.9706 18 9C18 4.02944 13.9706 0 9 0C4.02944 0 0 4.02944 0 9C0 13.9706 4.02944 18 9 18ZM9 16.6154C4.79414 16.6154 1.38462 13.2059 1.38462 9C1.38462 4.79414 4.79414 1.38462 9 1.38462C13.2059 1.38462 16.6154 4.79414 16.6154 9C16.6154 13.2059 13.2059 16.6154 9 16.6154ZM8.16938 6.29409C7.50305 5.9324 6.69231 6.4148 6.69231 7.17296V10.827C6.69231 11.5852 7.50305 12.0676 8.16937 11.7059L11.5352 9.87887C12.2324 9.50039 12.2324 8.49961 11.5352 8.12113L8.16938 6.29409Z" fill="#212121"/>
</svg>
