<svg width="22" height="21" viewBox="0 0 22 21" fill="none" xmlns="http://www.w3.org/2000/svg">
<path fill-rule="evenodd" clip-rule="evenodd" d="M11 1.76807L8.29629 7.2506L2.27002 8.14976L6.62174 12.4476L5.6094 18.4906L11 15.6534L16.3906 18.4906L15.3782 12.4476L19.7299 8.14976L13.7037 7.2506L11 1.76807V1.76807Z" fill="#FFE24B"/>
<path fill-rule="evenodd" clip-rule="evenodd" d="M9.41386 0.986696C10.0619 -0.328899 11.9381 -0.328899 12.5861 0.986696L14.8796 5.63902L19.9908 6.40115C21.4319 6.61599 22.0093 8.38426 20.9722 9.40809L17.2738 13.0605L18.1341 18.1991C18.3763 19.642 16.8609 20.7374 15.5674 20.0557L11 17.6527L6.43255 20.0557C5.13906 20.7374 3.62365 19.642 3.8659 18.1991L4.72617 13.0605L1.02783 9.40809C-0.00926551 8.38426 0.568075 6.61599 2.00922 6.40115L7.11953 5.63902L9.41386 0.986696ZM11 1.76828L8.29631 7.25081L2.27004 8.14997L6.62176 12.4478L5.60942 18.4908L11 15.6536L16.3906 18.4908L15.3782 12.4478L19.73 8.14997L13.7037 7.25081L11 1.76828V1.76828Z" fill="#FFE24B"/>
</svg>
